<mxfile host="app.diagrams.net" modified="2024-04-29T07:06:28.088Z" agent="Mozilla/5.0 (X11; Linux x86_64) AppleWebKit/537.36 (KHTML, like Gecko) Chrome/123.0.0.0 Safari/537.36" etag="QR-uSfUorgIq-GdLRtmX" version="24.3.1" type="device">
  <diagram id="C5RBs43oDa-KdzZeNtuy" name="Page-1">
    <mxGraphModel dx="880" dy="481" grid="1" gridSize="10" guides="1" tooltips="1" connect="1" arrows="1" fold="1" page="1" pageScale="1" pageWidth="827" pageHeight="1169" math="0" shadow="0">
      <root>
        <mxCell id="WIyWlLk6GJQsqaUBKTNV-0" />
        <mxCell id="WIyWlLk6GJQsqaUBKTNV-1" parent="WIyWlLk6GJQsqaUBKTNV-0" />
        <mxCell id="kbwg7CoSisO7idz7Fo6P-8" style="edgeStyle=orthogonalEdgeStyle;rounded=0;orthogonalLoop=1;jettySize=auto;html=1;entryX=0.5;entryY=0;entryDx=0;entryDy=0;" edge="1" parent="WIyWlLk6GJQsqaUBKTNV-1" source="WIyWlLk6GJQsqaUBKTNV-3" target="WIyWlLk6GJQsqaUBKTNV-7">
          <mxGeometry relative="1" as="geometry" />
        </mxCell>
        <mxCell id="kbwg7CoSisO7idz7Fo6P-9" style="edgeStyle=orthogonalEdgeStyle;rounded=0;orthogonalLoop=1;jettySize=auto;html=1;" edge="1" parent="WIyWlLk6GJQsqaUBKTNV-1" source="WIyWlLk6GJQsqaUBKTNV-3" target="kbwg7CoSisO7idz7Fo6P-0">
          <mxGeometry relative="1" as="geometry" />
        </mxCell>
        <mxCell id="kbwg7CoSisO7idz7Fo6P-17" style="edgeStyle=orthogonalEdgeStyle;rounded=0;orthogonalLoop=1;jettySize=auto;html=1;entryX=0.5;entryY=0;entryDx=0;entryDy=0;" edge="1" parent="WIyWlLk6GJQsqaUBKTNV-1" source="WIyWlLk6GJQsqaUBKTNV-3" target="kbwg7CoSisO7idz7Fo6P-12">
          <mxGeometry relative="1" as="geometry" />
        </mxCell>
        <mxCell id="WIyWlLk6GJQsqaUBKTNV-3" value="Foundation" style="rounded=1;whiteSpace=wrap;html=1;fontSize=12;glass=0;strokeWidth=1;shadow=0;" parent="WIyWlLk6GJQsqaUBKTNV-1" vertex="1">
          <mxGeometry x="160" y="80" width="120" height="40" as="geometry" />
        </mxCell>
        <mxCell id="kbwg7CoSisO7idz7Fo6P-6" style="edgeStyle=orthogonalEdgeStyle;rounded=0;orthogonalLoop=1;jettySize=auto;html=1;" edge="1" parent="WIyWlLk6GJQsqaUBKTNV-1" source="WIyWlLk6GJQsqaUBKTNV-7">
          <mxGeometry relative="1" as="geometry">
            <mxPoint x="80" y="240" as="targetPoint" />
          </mxGeometry>
        </mxCell>
        <mxCell id="WIyWlLk6GJQsqaUBKTNV-7" value="Python" style="rounded=1;whiteSpace=wrap;html=1;fontSize=12;glass=0;strokeWidth=1;shadow=0;" parent="WIyWlLk6GJQsqaUBKTNV-1" vertex="1">
          <mxGeometry x="20" y="160" width="120" height="40" as="geometry" />
        </mxCell>
        <mxCell id="kbwg7CoSisO7idz7Fo6P-11" value="" style="edgeStyle=orthogonalEdgeStyle;rounded=0;orthogonalLoop=1;jettySize=auto;html=1;" edge="1" parent="WIyWlLk6GJQsqaUBKTNV-1" source="kbwg7CoSisO7idz7Fo6P-0" target="kbwg7CoSisO7idz7Fo6P-10">
          <mxGeometry relative="1" as="geometry" />
        </mxCell>
        <mxCell id="kbwg7CoSisO7idz7Fo6P-0" value="SQL" style="rounded=1;whiteSpace=wrap;html=1;fontSize=12;glass=0;strokeWidth=1;shadow=0;" vertex="1" parent="WIyWlLk6GJQsqaUBKTNV-1">
          <mxGeometry x="300" y="160" width="120" height="40" as="geometry" />
        </mxCell>
        <mxCell id="kbwg7CoSisO7idz7Fo6P-7" value="Data Processing library(pandas, Tensorflow, Scikit learn, pyspark)&lt;div&gt;&lt;div&gt;&lt;br&gt;&lt;/div&gt;&lt;/div&gt;" style="rounded=1;whiteSpace=wrap;html=1;" vertex="1" parent="WIyWlLk6GJQsqaUBKTNV-1">
          <mxGeometry x="20" y="240" width="120" height="80" as="geometry" />
        </mxCell>
        <mxCell id="kbwg7CoSisO7idz7Fo6P-10" value="Transactional,&lt;br&gt;Group by,&lt;br&gt;window functions&lt;div&gt;&lt;br&gt;&lt;/div&gt;" style="rounded=1;whiteSpace=wrap;html=1;fontSize=12;glass=0;strokeWidth=1;shadow=0;" vertex="1" parent="WIyWlLk6GJQsqaUBKTNV-1">
          <mxGeometry x="300" y="240" width="120" height="80" as="geometry" />
        </mxCell>
        <mxCell id="kbwg7CoSisO7idz7Fo6P-14" value="" style="edgeStyle=orthogonalEdgeStyle;rounded=0;orthogonalLoop=1;jettySize=auto;html=1;" edge="1" parent="WIyWlLk6GJQsqaUBKTNV-1" source="kbwg7CoSisO7idz7Fo6P-12" target="kbwg7CoSisO7idz7Fo6P-13">
          <mxGeometry relative="1" as="geometry" />
        </mxCell>
        <mxCell id="kbwg7CoSisO7idz7Fo6P-16" value="" style="edgeStyle=orthogonalEdgeStyle;rounded=0;orthogonalLoop=1;jettySize=auto;html=1;" edge="1" parent="WIyWlLk6GJQsqaUBKTNV-1" source="kbwg7CoSisO7idz7Fo6P-12" target="kbwg7CoSisO7idz7Fo6P-15">
          <mxGeometry relative="1" as="geometry" />
        </mxCell>
        <mxCell id="kbwg7CoSisO7idz7Fo6P-20" value="" style="edgeStyle=orthogonalEdgeStyle;rounded=0;orthogonalLoop=1;jettySize=auto;html=1;" edge="1" parent="WIyWlLk6GJQsqaUBKTNV-1" source="kbwg7CoSisO7idz7Fo6P-12" target="kbwg7CoSisO7idz7Fo6P-19">
          <mxGeometry relative="1" as="geometry" />
        </mxCell>
        <mxCell id="kbwg7CoSisO7idz7Fo6P-12" value="&lt;div&gt;Database&lt;/div&gt;" style="rounded=1;whiteSpace=wrap;html=1;" vertex="1" parent="WIyWlLk6GJQsqaUBKTNV-1">
          <mxGeometry x="160" y="360" width="120" height="40" as="geometry" />
        </mxCell>
        <mxCell id="kbwg7CoSisO7idz7Fo6P-13" value="Relational Database&lt;div&gt;&lt;br&gt;&lt;/div&gt;" style="whiteSpace=wrap;html=1;rounded=1;" vertex="1" parent="WIyWlLk6GJQsqaUBKTNV-1">
          <mxGeometry y="350" width="120" height="60" as="geometry" />
        </mxCell>
        <mxCell id="kbwg7CoSisO7idz7Fo6P-15" value="NoSQL Databases" style="whiteSpace=wrap;html=1;rounded=1;" vertex="1" parent="WIyWlLk6GJQsqaUBKTNV-1">
          <mxGeometry x="320" y="350" width="120" height="60" as="geometry" />
        </mxCell>
        <mxCell id="kbwg7CoSisO7idz7Fo6P-22" value="" style="edgeStyle=orthogonalEdgeStyle;rounded=0;orthogonalLoop=1;jettySize=auto;html=1;" edge="1" parent="WIyWlLk6GJQsqaUBKTNV-1" source="kbwg7CoSisO7idz7Fo6P-19" target="kbwg7CoSisO7idz7Fo6P-21">
          <mxGeometry relative="1" as="geometry" />
        </mxCell>
        <mxCell id="kbwg7CoSisO7idz7Fo6P-24" value="" style="edgeStyle=orthogonalEdgeStyle;rounded=0;orthogonalLoop=1;jettySize=auto;html=1;" edge="1" parent="WIyWlLk6GJQsqaUBKTNV-1" source="kbwg7CoSisO7idz7Fo6P-19" target="kbwg7CoSisO7idz7Fo6P-23">
          <mxGeometry relative="1" as="geometry" />
        </mxCell>
        <mxCell id="kbwg7CoSisO7idz7Fo6P-26" value="" style="edgeStyle=orthogonalEdgeStyle;rounded=0;orthogonalLoop=1;jettySize=auto;html=1;" edge="1" parent="WIyWlLk6GJQsqaUBKTNV-1" source="kbwg7CoSisO7idz7Fo6P-19" target="kbwg7CoSisO7idz7Fo6P-25">
          <mxGeometry relative="1" as="geometry" />
        </mxCell>
        <mxCell id="kbwg7CoSisO7idz7Fo6P-19" value="Data warehousing" style="whiteSpace=wrap;html=1;rounded=1;" vertex="1" parent="WIyWlLk6GJQsqaUBKTNV-1">
          <mxGeometry x="160" y="470" width="120" height="60" as="geometry" />
        </mxCell>
        <mxCell id="kbwg7CoSisO7idz7Fo6P-21" value="Object stores (s3)" style="whiteSpace=wrap;html=1;rounded=1;" vertex="1" parent="WIyWlLk6GJQsqaUBKTNV-1">
          <mxGeometry y="470" width="120" height="60" as="geometry" />
        </mxCell>
        <mxCell id="kbwg7CoSisO7idz7Fo6P-23" value="Amazon Redshift, Snowflake,&lt;br&gt;Google&amp;nbsp;&lt;span style=&quot;background-color: initial;&quot;&gt;Bigquery&lt;/span&gt;" style="whiteSpace=wrap;html=1;rounded=1;" vertex="1" parent="WIyWlLk6GJQsqaUBKTNV-1">
          <mxGeometry x="360" y="470" width="120" height="60" as="geometry" />
        </mxCell>
        <mxCell id="kbwg7CoSisO7idz7Fo6P-28" value="" style="edgeStyle=orthogonalEdgeStyle;rounded=0;orthogonalLoop=1;jettySize=auto;html=1;" edge="1" parent="WIyWlLk6GJQsqaUBKTNV-1" source="kbwg7CoSisO7idz7Fo6P-25" target="kbwg7CoSisO7idz7Fo6P-27">
          <mxGeometry relative="1" as="geometry" />
        </mxCell>
        <mxCell id="kbwg7CoSisO7idz7Fo6P-30" value="" style="edgeStyle=orthogonalEdgeStyle;rounded=0;orthogonalLoop=1;jettySize=auto;html=1;" edge="1" parent="WIyWlLk6GJQsqaUBKTNV-1" source="kbwg7CoSisO7idz7Fo6P-25" target="kbwg7CoSisO7idz7Fo6P-29">
          <mxGeometry relative="1" as="geometry" />
        </mxCell>
        <mxCell id="kbwg7CoSisO7idz7Fo6P-34" value="" style="edgeStyle=orthogonalEdgeStyle;rounded=0;orthogonalLoop=1;jettySize=auto;html=1;" edge="1" parent="WIyWlLk6GJQsqaUBKTNV-1" source="kbwg7CoSisO7idz7Fo6P-25" target="kbwg7CoSisO7idz7Fo6P-33">
          <mxGeometry relative="1" as="geometry" />
        </mxCell>
        <mxCell id="kbwg7CoSisO7idz7Fo6P-25" value="Data Processing" style="whiteSpace=wrap;html=1;rounded=1;" vertex="1" parent="WIyWlLk6GJQsqaUBKTNV-1">
          <mxGeometry x="160" y="610" width="120" height="60" as="geometry" />
        </mxCell>
        <mxCell id="kbwg7CoSisO7idz7Fo6P-27" value="ETL" style="whiteSpace=wrap;html=1;rounded=1;" vertex="1" parent="WIyWlLk6GJQsqaUBKTNV-1">
          <mxGeometry y="610" width="120" height="60" as="geometry" />
        </mxCell>
        <mxCell id="kbwg7CoSisO7idz7Fo6P-32" value="" style="edgeStyle=orthogonalEdgeStyle;rounded=0;orthogonalLoop=1;jettySize=auto;html=1;" edge="1" parent="WIyWlLk6GJQsqaUBKTNV-1" source="kbwg7CoSisO7idz7Fo6P-29" target="kbwg7CoSisO7idz7Fo6P-31">
          <mxGeometry relative="1" as="geometry" />
        </mxCell>
        <mxCell id="kbwg7CoSisO7idz7Fo6P-29" value="Batch and stream processing" style="whiteSpace=wrap;html=1;rounded=1;" vertex="1" parent="WIyWlLk6GJQsqaUBKTNV-1">
          <mxGeometry x="360" y="610" width="120" height="60" as="geometry" />
        </mxCell>
        <mxCell id="kbwg7CoSisO7idz7Fo6P-31" value="&lt;ul&gt;&lt;li&gt;Apache spark&lt;/li&gt;&lt;li&gt;Map reduce&lt;/li&gt;&lt;li&gt;AWS EMR&lt;/li&gt;&lt;li&gt;Kafka&lt;/li&gt;&lt;/ul&gt;" style="whiteSpace=wrap;html=1;rounded=1;" vertex="1" parent="WIyWlLk6GJQsqaUBKTNV-1">
          <mxGeometry x="345" y="720" width="150" height="60" as="geometry" />
        </mxCell>
        <mxCell id="kbwg7CoSisO7idz7Fo6P-36" value="" style="edgeStyle=orthogonalEdgeStyle;rounded=0;orthogonalLoop=1;jettySize=auto;html=1;" edge="1" parent="WIyWlLk6GJQsqaUBKTNV-1" source="kbwg7CoSisO7idz7Fo6P-33" target="kbwg7CoSisO7idz7Fo6P-35">
          <mxGeometry relative="1" as="geometry" />
        </mxCell>
        <mxCell id="kbwg7CoSisO7idz7Fo6P-33" value="Hadoop Ecosystem" style="whiteSpace=wrap;html=1;rounded=1;" vertex="1" parent="WIyWlLk6GJQsqaUBKTNV-1">
          <mxGeometry x="160" y="750" width="120" height="60" as="geometry" />
        </mxCell>
        <mxCell id="kbwg7CoSisO7idz7Fo6P-35" value="Building a data pipeline" style="whiteSpace=wrap;html=1;rounded=1;" vertex="1" parent="WIyWlLk6GJQsqaUBKTNV-1">
          <mxGeometry x="160" y="890" width="120" height="60" as="geometry" />
        </mxCell>
      </root>
    </mxGraphModel>
  </diagram>
</mxfile>
